<svg xmlns="http://www.w3.org/2000/svg" viewBox="0 0 512 512"><path fill="#ffffff" d="M496.95 512H15.05c-5.68 0-10.875-3.206-13.44-8.28-2.557-5.073-2.035-11.16 1.338-15.734l78.22-105.854c1.366-1.853 3.146-3.367 5.188-4.427l43.38-22.44L235.32 227.957c4.08-4.927 10.81-6.678 16.792-4.516l88.84 32.78c2.85 1.06 5.306 2.95 7.07 5.42l159.436 224.51c2.808 2.74 4.542 6.56 4.542 10.8 0 8.327-6.73 15.06-15.05 15.06zM44.894 481.883h422.603L326.18 282.867l-74.493-27.485-100.744 121.472c-1.286 1.56-2.873 2.822-4.666 3.764l-42.982 22.235-58.4 79.03z"/><path fill="#ffffff" d="M139.37 382.294c-5.593 0-10.965-3.133-13.56-8.515-3.615-7.49-.478-16.49 7.004-20.11l116.492-56.31c7.488-3.61 16.483-.47 20.1 7.01s.484 16.48-7.012 20.1L145.91 380.79c-2.11 1.016-4.348 1.5-6.54 1.5z"/><path fill="#ffffff" d="M101.06 403.883c-3.9 0-7.753-1.515-10.64-4.397C46.18 355.28 21.81 296.484 21.81 233.94 21.812 104.942 126.7 0 255.618 0c128.927 0 233.807 104.942 233.807 233.94 0 59.633-22.634 116.53-63.713 160.206-3.102 3.28-7.54 4.883-11.993 4.706-4.52-.322-8.63-2.633-11.25-6.31L325.94 284.75l-74.493-27.485-100.743 121.47c-1.285 1.56-2.873 2.824-4.666 3.764l-38.073 19.7c-2.193 1.13-4.56 1.67-6.91 1.67zM255.618 30.118c-112.325 0-203.706 91.44-203.706 203.823 0 50.84 18.475 98.84 52.256 136.31l25.33-13.1 105.588-127.31c4.086-4.91 10.817-6.67 16.792-4.51l88.84 32.78c2.85 1.06 5.305 2.94 7.068 5.41l68.107 95.92c28.13-35.822 43.43-79.733 43.43-125.484.002-112.38-91.385-203.82-203.704-203.82z"/></svg>